# xmcd
# 
# Track frame offsets:
#     150
#     26480
#     57267
#     88350
#     109945
#     129192
#     155365
#     175137
# 
# Disc length: 2986
# 
# Revision: 6
# Processed by: cddbd v1.5.2PL0 Copyright (c) Steve Scherf et al.
# Submitted via: fre:ac v1.0.27
# 
DISCID=610ba808
DTITLE=John Mayall and The Bluesbreakers - Dreaming About the Blues [CD2]
DYEAR=2008
DGENRE=Blues
TTITLE0=Ridin' on The L&n
TTITLE1=Help Me
TTITLE2=Racehorse Man
TTITLE3=All Your Love
TTITLE4=I Ain't Got You
TTITLE5=Wild About You
TTITLE6=It Ain't Right
TTITLE7=Room to Move
EXTD=This compilation: Copyright 1997 Charly Records (Portugal) Ltd.
EXTT0=
EXTT1=
EXTT2=
EXTT3=
EXTT4=
EXTT5=
EXTT6=
EXTT7=
PLAYORDER=
